<svg width="638" height="637" viewBox="0 0 638 637" fill="none" xmlns="http://www.w3.org/2000/svg">
<path d="M209 265.5L61 317V320.5L131.5 569.5L163.5 585L185 588L231 450L225.5 299L209 265.5Z" fill="#38AF79" stroke="#57D6A1"/>
<path d="M302.5 177L212 201.5C214.833 229 222.1 304.2 228.5 385C234.9 465.8 196.167 558 176 594L206 604H228.5C257.167 574.833 317 514.6 327 507C339.5 497.5 381 380.5 386 362.5C390 348.1 390 271.833 389.5 235.5L386 192L367 181L335.5 177H302.5Z" fill="#57D6A1" stroke="#57D6A1"/>
<path d="M583 153C566.2 126.6 438.333 107 376.5 100.5C380.167 127.167 388.4 196.3 392 259.5C396.5 338.5 359 444.5 326 505C299.6 553.4 239.333 594.5 212.5 609L264.5 631H340C370.833 624.5 441.5 606.9 477.5 588.5C522.5 565.5 583 481.5 605 444.5C622.6 414.9 629.333 326.5 630.5 286C626.5 265.833 618 223.8 616 217C613.5 208.5 604 186 583 153Z" fill="#BEFEA8" stroke="black"/>
<path d="M294.622 0.340622C231.422 6.34062 175.289 27.5406 126.622 64.074C110.622 76.074 83.9555 101.941 71.0221 117.941C19.6888 181.807 -5.91121 265.007 1.15546 344.874C9.95546 443.274 60.6221 528.741 142.355 583.674C198.222 621.141 260.889 638.741 330.622 636.474C390.089 634.474 435.822 621.141 482.889 591.941C568.889 538.741 623.156 454.074 635.422 354.207C638.089 332.741 637.422 291.941 634.089 270.874C618.089 169.541 557.956 85.274 466.355 35.8073C438.222 20.6073 399.022 7.94068 363.955 2.87401C350.222 0.874009 306.489 -0.726044 294.622 0.340622ZM439.289 118.074C492.889 127.007 538.489 147.941 574.622 179.941C593.822 197.007 601.155 206.474 605.555 219.674C607.555 225.807 609.289 231.407 609.289 232.341C609.289 233.141 603.689 228.207 597.022 221.274C562.622 186.074 514.489 157.274 465.155 142.474L456.222 139.941L454.755 147.541C451.289 165.007 435.955 178.874 416.889 181.541L410.622 182.474L411.555 196.741C412.222 204.474 412.622 231.807 412.622 257.541C412.489 314.741 410.089 337.141 398.622 384.207C382.222 451.807 354.222 507.674 309.689 561.141C296.622 576.741 275.155 597.807 262.889 607.141L253.155 614.474L243.822 612.207C238.755 611.007 234.622 609.807 234.622 609.541C234.622 609.274 239.822 605.274 246.355 600.607C279.289 576.207 309.822 542.874 334.355 504.207C344.622 488.074 363.422 450.207 369.689 432.874C381.155 401.807 389.822 367.807 394.489 334.874C403.155 275.407 401.555 206.474 389.955 135.807C388.089 124.607 386.622 115.141 386.622 114.607C386.622 113.007 423.422 115.541 439.289 118.074ZM482.222 164.741C512.089 176.741 532.622 187.941 555.956 205.274C571.822 217.141 596.356 241.674 608.889 258.207C618.222 270.741 618.355 271.007 620.089 282.874C623.955 309.941 621.822 353.674 615.156 383.541C611.422 399.541 599.156 435.274 595.956 438.607C595.422 439.141 593.689 436.074 592.089 431.674C588.222 421.007 577.422 405.007 569.555 398.207C551.289 382.607 525.289 375.541 502.355 380.074C471.155 386.207 445.822 404.741 428.755 433.807C403.555 476.741 408.755 531.541 440.755 560.741C447.822 567.141 467.422 578.207 471.689 578.207C475.822 578.207 470.489 581.674 453.956 589.941C427.822 603.007 403.689 611.141 373.289 617.141C359.289 619.941 354.489 620.207 319.955 620.074C299.022 620.074 280.222 619.407 278.222 618.741L274.489 617.541L284.089 609.541C301.555 595.007 325.822 567.407 345.022 540.474C403.155 458.741 432.222 353.274 428.755 236.741C428.355 220.874 427.555 205.141 427.155 201.807C426.355 196.474 426.622 195.541 428.755 194.741C443.555 189.941 458.622 177.674 464.089 166.074C465.822 162.474 467.689 159.541 468.222 159.541C468.756 159.541 475.156 161.941 482.222 164.741ZM367.022 192.741C374.089 194.207 380.622 195.807 381.289 196.207C382.889 197.274 383.022 208.874 381.422 208.874C380.889 208.874 372.622 207.674 363.155 206.074C340.489 202.474 311.155 201.407 291.822 203.407C269.422 205.807 270.622 205.141 270.622 214.207C270.622 231.541 260.355 245.407 244.222 250.341C237.689 252.207 237.689 252.074 241.155 269.007C262.355 372.874 257.155 467.141 226.089 545.541C216.222 570.207 203.155 596.874 200.755 596.874C199.155 596.874 192.755 594.607 190.889 593.407C190.622 593.274 192.889 588.741 195.955 583.541C214.622 551.541 229.822 501.807 236.755 450.074C239.555 428.341 240.622 376.207 238.755 350.607C235.689 310.074 227.422 262.607 216.755 223.541C211.689 204.874 210.489 206.874 228.622 201.807C245.555 197.007 265.422 193.007 282.222 190.874C303.422 188.074 349.822 189.141 367.022 192.741ZM359.955 221.541C372.755 223.407 383.555 225.274 383.955 225.674C384.355 226.074 384.489 240.874 384.489 258.607C384.222 323.541 374.622 376.741 353.155 432.874C347.155 448.607 328.755 484.474 319.422 498.874C301.022 526.874 272.355 559.807 250.622 577.541C239.555 586.607 221.422 599.541 219.822 599.541C219.155 599.541 221.289 594.341 224.489 587.807C245.555 545.807 259.155 501.274 266.089 451.541C268.889 430.607 270.089 373.141 268.089 347.941C266.355 327.007 262.889 301.007 258.622 277.407C257.289 269.407 256.222 262.874 256.355 262.874C268.755 255.674 278.622 245.141 282.489 234.874C284.089 230.741 285.289 226.474 285.289 225.141C285.422 219.007 287.155 218.607 315.289 218.341C331.822 218.207 341.822 219.007 359.955 221.541ZM213.955 283.007C214.355 285.674 214.622 287.941 214.355 288.207C214.089 288.341 207.955 289.807 200.622 291.541C174.222 297.541 127.955 315.807 127.955 320.207C127.955 320.874 129.155 323.274 130.622 325.541C132.222 328.074 133.289 331.807 133.289 335.407C133.289 340.741 132.622 341.941 127.155 347.007L121.022 352.741L126.489 361.141C146.489 391.674 159.689 429.674 164.089 470.341C166.222 489.674 164.889 531.407 161.289 554.874C159.689 565.141 158.222 573.674 157.955 573.941C157.689 574.341 155.289 573.141 152.622 571.541C149.422 569.541 148.089 567.941 148.622 566.341C148.889 565.141 150.089 557.941 151.155 550.207C159.022 493.007 151.022 436.341 128.755 390.874C118.622 370.207 103.822 348.607 91.0221 335.807C89.2888 334.207 87.9555 332.341 87.9555 331.807C87.9555 325.941 141.822 296.074 167.822 287.541C182.222 282.741 201.022 278.474 208.089 278.341C212.622 278.207 213.022 278.474 213.955 283.007ZM217.822 307.807C223.155 333.407 225.422 393.807 222.622 428.207C219.422 465.541 211.555 504.607 201.955 528.874C195.289 545.941 176.355 584.874 174.622 584.874C172.889 584.874 172.889 583.407 175.289 571.141C184.489 523.141 183.689 466.341 173.289 427.007C167.422 404.741 154.755 374.341 145.689 360.607C142.622 356.074 142.489 355.274 144.222 353.141C147.822 349.007 149.955 341.674 149.689 334.074C149.555 326.741 149.689 326.474 154.355 324.207C166.889 318.207 208.089 305.274 215.555 304.874C216.489 304.874 217.555 306.207 217.822 307.807ZM536.222 396.874C557.422 403.407 574.222 422.207 580.755 446.474C584.489 460.474 583.689 464.074 573.422 479.541C555.022 507.274 530.089 535.274 504.355 557.141L493.022 566.741L483.555 565.141C437.955 557.274 415.155 505.407 435.422 455.007C447.289 425.141 473.955 401.674 503.289 395.141C510.755 393.407 528.089 394.341 536.222 396.874Z" fill="#14684E"/>
</svg>
