<svg width="2045" height="637" viewBox="0 0 2045 637" fill="none" xmlns="http://www.w3.org/2000/svg">
<path d="M209 265.5L61 317V320.5L131.5 569.5L163.5 585L185 588L231 450L225.5 299L209 265.5Z" fill="#38AF79" stroke="#57D6A1"/>
<path d="M302.5 177L212 201.5C214.833 229 222.1 304.2 228.5 385C234.9 465.8 196.167 558 176 594L206 604H228.5C257.167 574.833 317 514.6 327 507C339.5 497.5 381 380.5 386 362.5C390 348.1 390 271.833 389.5 235.5L386 192L367 181L335.5 177H302.5Z" fill="#57D6A1" stroke="#57D6A1"/>
<path d="M583 153C566.2 126.6 438.333 107 376.5 100.5C380.167 127.167 388.4 196.3 392 259.5C396.5 338.5 359 444.5 326 505C299.6 553.4 239.333 594.5 212.5 609L264.5 631H340C370.833 624.5 441.5 606.9 477.5 588.5C522.5 565.5 583 481.5 605 444.5C622.6 414.9 629.333 326.5 630.5 286C626.5 265.833 618 223.8 616 217C613.5 208.5 604 186 583 153Z" fill="#BEFEA8" stroke="black"/>
<path d="M294.622 0.340622C231.422 6.34062 175.289 27.5406 126.622 64.074C110.622 76.074 83.9555 101.941 71.0221 117.941C19.6888 181.807 -5.91121 265.007 1.15546 344.874C9.95546 443.274 60.6221 528.741 142.355 583.674C198.222 621.141 260.889 638.741 330.622 636.474C390.089 634.474 435.822 621.141 482.889 591.941C568.889 538.741 623.156 454.074 635.422 354.207C638.089 332.741 637.422 291.941 634.089 270.874C618.089 169.541 557.956 85.274 466.355 35.8073C438.222 20.6073 399.022 7.94068 363.955 2.87401C350.222 0.874009 306.489 -0.726044 294.622 0.340622ZM439.289 118.074C492.889 127.007 538.489 147.941 574.622 179.941C593.822 197.007 601.155 206.474 605.555 219.674C607.555 225.807 609.289 231.407 609.289 232.341C609.289 233.141 603.689 228.207 597.022 221.274C562.622 186.074 514.489 157.274 465.155 142.474L456.222 139.941L454.755 147.541C451.289 165.007 435.955 178.874 416.889 181.541L410.622 182.474L411.555 196.741C412.222 204.474 412.622 231.807 412.622 257.541C412.489 314.741 410.089 337.141 398.622 384.207C382.222 451.807 354.222 507.674 309.689 561.141C296.622 576.741 275.155 597.807 262.889 607.141L253.155 614.474L243.822 612.207C238.755 611.007 234.622 609.807 234.622 609.541C234.622 609.274 239.822 605.274 246.355 600.607C279.289 576.207 309.822 542.874 334.355 504.207C344.622 488.074 363.422 450.207 369.689 432.874C381.155 401.807 389.822 367.807 394.489 334.874C403.155 275.407 401.555 206.474 389.955 135.807C388.089 124.607 386.622 115.141 386.622 114.607C386.622 113.007 423.422 115.541 439.289 118.074ZM482.222 164.741C512.089 176.741 532.622 187.941 555.956 205.274C571.822 217.141 596.356 241.674 608.889 258.207C618.222 270.741 618.355 271.007 620.089 282.874C623.955 309.941 621.822 353.674 615.156 383.541C611.422 399.541 599.156 435.274 595.956 438.607C595.422 439.141 593.689 436.074 592.089 431.674C588.222 421.007 577.422 405.007 569.555 398.207C551.289 382.607 525.289 375.541 502.355 380.074C471.155 386.207 445.822 404.741 428.755 433.807C403.555 476.741 408.755 531.541 440.755 560.741C447.822 567.141 467.422 578.207 471.689 578.207C475.822 578.207 470.489 581.674 453.956 589.941C427.822 603.007 403.689 611.141 373.289 617.141C359.289 619.941 354.489 620.207 319.955 620.074C299.022 620.074 280.222 619.407 278.222 618.741L274.489 617.541L284.089 609.541C301.555 595.007 325.822 567.407 345.022 540.474C403.155 458.741 432.222 353.274 428.755 236.741C428.355 220.874 427.555 205.141 427.155 201.807C426.355 196.474 426.622 195.541 428.755 194.741C443.555 189.941 458.622 177.674 464.089 166.074C465.822 162.474 467.689 159.541 468.222 159.541C468.756 159.541 475.156 161.941 482.222 164.741ZM367.022 192.741C374.089 194.207 380.622 195.807 381.289 196.207C382.889 197.274 383.022 208.874 381.422 208.874C380.889 208.874 372.622 207.674 363.155 206.074C340.489 202.474 311.155 201.407 291.822 203.407C269.422 205.807 270.622 205.141 270.622 214.207C270.622 231.541 260.355 245.407 244.222 250.341C237.689 252.207 237.689 252.074 241.155 269.007C262.355 372.874 257.155 467.141 226.089 545.541C216.222 570.207 203.155 596.874 200.755 596.874C199.155 596.874 192.755 594.607 190.889 593.407C190.622 593.274 192.889 588.741 195.955 583.541C214.622 551.541 229.822 501.807 236.755 450.074C239.555 428.341 240.622 376.207 238.755 350.607C235.689 310.074 227.422 262.607 216.755 223.541C211.689 204.874 210.489 206.874 228.622 201.807C245.555 197.007 265.422 193.007 282.222 190.874C303.422 188.074 349.822 189.141 367.022 192.741ZM359.955 221.541C372.755 223.407 383.555 225.274 383.955 225.674C384.355 226.074 384.489 240.874 384.489 258.607C384.222 323.541 374.622 376.741 353.155 432.874C347.155 448.607 328.755 484.474 319.422 498.874C301.022 526.874 272.355 559.807 250.622 577.541C239.555 586.607 221.422 599.541 219.822 599.541C219.155 599.541 221.289 594.341 224.489 587.807C245.555 545.807 259.155 501.274 266.089 451.541C268.889 430.607 270.089 373.141 268.089 347.941C266.355 327.007 262.889 301.007 258.622 277.407C257.289 269.407 256.222 262.874 256.355 262.874C268.755 255.674 278.622 245.141 282.489 234.874C284.089 230.741 285.289 226.474 285.289 225.141C285.422 219.007 287.155 218.607 315.289 218.341C331.822 218.207 341.822 219.007 359.955 221.541ZM213.955 283.007C214.355 285.674 214.622 287.941 214.355 288.207C214.089 288.341 207.955 289.807 200.622 291.541C174.222 297.541 127.955 315.807 127.955 320.207C127.955 320.874 129.155 323.274 130.622 325.541C132.222 328.074 133.289 331.807 133.289 335.407C133.289 340.741 132.622 341.941 127.155 347.007L121.022 352.741L126.489 361.141C146.489 391.674 159.689 429.674 164.089 470.341C166.222 489.674 164.889 531.407 161.289 554.874C159.689 565.141 158.222 573.674 157.955 573.941C157.689 574.341 155.289 573.141 152.622 571.541C149.422 569.541 148.089 567.941 148.622 566.341C148.889 565.141 150.089 557.941 151.155 550.207C159.022 493.007 151.022 436.341 128.755 390.874C118.622 370.207 103.822 348.607 91.0221 335.807C89.2888 334.207 87.9555 332.341 87.9555 331.807C87.9555 325.941 141.822 296.074 167.822 287.541C182.222 282.741 201.022 278.474 208.089 278.341C212.622 278.207 213.022 278.474 213.955 283.007ZM217.822 307.807C223.155 333.407 225.422 393.807 222.622 428.207C219.422 465.541 211.555 504.607 201.955 528.874C195.289 545.941 176.355 584.874 174.622 584.874C172.889 584.874 172.889 583.407 175.289 571.141C184.489 523.141 183.689 466.341 173.289 427.007C167.422 404.741 154.755 374.341 145.689 360.607C142.622 356.074 142.489 355.274 144.222 353.141C147.822 349.007 149.955 341.674 149.689 334.074C149.555 326.741 149.689 326.474 154.355 324.207C166.889 318.207 208.089 305.274 215.555 304.874C216.489 304.874 217.555 306.207 217.822 307.807ZM536.222 396.874C557.422 403.407 574.222 422.207 580.755 446.474C584.489 460.474 583.689 464.074 573.422 479.541C555.022 507.274 530.089 535.274 504.355 557.141L493.022 566.741L483.555 565.141C437.955 557.274 415.155 505.407 435.422 455.007C447.289 425.141 473.955 401.674 503.289 395.141C510.755 393.407 528.089 394.341 536.222 396.874Z" fill="#14684E"/>
<path d="M724.384 235.507H767.535L813.11 346.698H815.049L860.624 235.507H903.775V401H869.836V293.284H868.462L825.635 400.192H802.524L759.696 292.88H758.323V401H724.384V235.507ZM988.037 403.424C975.485 403.424 964.629 400.758 955.471 395.424C946.367 390.037 939.337 382.549 934.381 372.96C929.425 363.317 926.947 352.139 926.947 339.425C926.947 326.604 929.425 315.398 934.381 305.809C939.337 296.166 946.367 288.678 955.471 283.345C964.629 277.958 975.485 275.264 988.037 275.264C1000.59 275.264 1011.42 277.958 1020.52 283.345C1029.68 288.678 1036.74 296.166 1041.69 305.809C1046.65 315.398 1049.13 326.604 1049.13 339.425C1049.13 352.139 1046.65 363.317 1041.69 372.96C1036.74 382.549 1029.68 390.037 1020.52 395.424C1011.42 400.758 1000.59 403.424 988.037 403.424ZM988.198 376.758C993.909 376.758 998.676 375.142 1002.5 371.909C1006.33 368.623 1009.21 364.152 1011.15 358.496C1013.14 352.839 1014.14 346.401 1014.14 339.183C1014.14 331.964 1013.14 325.526 1011.15 319.87C1009.21 314.213 1006.33 309.742 1002.5 306.456C998.676 303.17 993.909 301.527 988.198 301.527C982.434 301.527 977.586 303.17 973.653 306.456C969.774 309.742 966.838 314.213 964.845 319.87C962.906 325.526 961.936 331.964 961.936 339.183C961.936 346.401 962.906 352.839 964.845 358.496C966.838 364.152 969.774 368.623 973.653 371.909C977.586 375.142 982.434 376.758 988.198 376.758ZM1105.93 329.243V401H1071.51V276.88H1104.32V298.779H1105.77C1108.52 291.56 1113.13 285.85 1119.59 281.648C1126.05 277.392 1133.89 275.264 1143.11 275.264C1151.72 275.264 1159.24 277.15 1165.65 280.921C1172.06 284.692 1177.04 290.079 1180.6 297.082C1184.16 304.032 1185.93 312.328 1185.93 321.971V401H1151.51V328.112C1151.56 320.516 1149.62 314.59 1145.69 310.335C1141.76 306.025 1136.34 303.87 1129.45 303.87C1124.82 303.87 1120.72 304.867 1117.17 306.86C1113.66 308.853 1110.92 311.762 1108.92 315.587C1106.98 319.358 1105.99 323.91 1105.93 329.243ZM1269.63 403.424C1256.86 403.424 1245.87 400.838 1236.66 395.667C1227.5 390.441 1220.44 383.061 1215.49 373.526C1210.53 363.937 1208.05 352.597 1208.05 339.506C1208.05 326.738 1210.53 315.533 1215.49 305.89C1220.44 296.247 1227.42 288.732 1236.42 283.345C1245.47 277.958 1256.08 275.264 1268.25 275.264C1276.44 275.264 1284.07 276.584 1291.12 279.224C1298.23 281.81 1304.43 285.715 1309.71 290.941C1315.04 296.166 1319.19 302.739 1322.15 310.658C1325.12 318.523 1326.6 327.735 1326.6 338.294V347.748H1221.79V326.415H1294.19C1294.19 321.459 1293.12 317.068 1290.96 313.244C1288.81 309.419 1285.82 306.429 1281.99 304.274C1278.22 302.065 1273.83 300.961 1268.82 300.961C1263.6 300.961 1258.96 302.173 1254.92 304.597C1250.94 306.968 1247.81 310.173 1245.55 314.213C1243.29 318.2 1242.13 322.644 1242.07 327.546V347.829C1242.07 353.97 1243.2 359.277 1245.47 363.748C1247.78 368.219 1251.04 371.667 1255.25 374.091C1259.45 376.515 1264.43 377.728 1270.19 377.728C1274.02 377.728 1277.52 377.189 1280.7 376.111C1283.88 375.034 1286.6 373.418 1288.86 371.263C1291.12 369.108 1292.85 366.468 1294.03 363.344L1325.87 365.445C1324.25 373.095 1320.94 379.775 1315.93 385.485C1310.97 391.142 1304.56 395.559 1296.7 398.737C1288.89 401.862 1279.86 403.424 1269.63 403.424ZM1366.98 447.545C1362.62 447.545 1358.52 447.195 1354.7 446.494C1350.93 445.848 1347.8 445.013 1345.32 443.989L1353.08 418.293C1357.12 419.532 1360.76 420.205 1363.99 420.313C1367.28 420.421 1370.11 419.666 1372.48 418.05C1374.9 416.434 1376.87 413.687 1378.37 409.808L1380.39 404.556L1335.87 276.88H1372.07L1397.77 368.031H1399.06L1425 276.88H1461.44L1413.2 414.414C1410.89 421.094 1407.73 426.912 1403.75 431.868C1399.82 436.878 1394.83 440.73 1388.8 443.424C1382.77 446.171 1375.49 447.545 1366.98 447.545ZM1678.39 293.446H1643C1642.35 288.867 1641.03 284.8 1639.04 281.244C1637.04 277.635 1634.49 274.564 1631.36 272.032C1628.24 269.5 1624.63 267.561 1620.53 266.214C1616.49 264.867 1612.1 264.194 1607.36 264.194C1598.8 264.194 1591.33 266.322 1584.98 270.578C1578.62 274.78 1573.69 280.921 1570.19 289.002C1566.69 297.028 1564.94 306.779 1564.94 318.254C1564.94 330.051 1566.69 339.964 1570.19 347.991C1573.75 356.017 1578.7 362.078 1585.06 366.172C1591.42 370.266 1598.77 372.314 1607.12 372.314C1611.81 372.314 1616.14 371.694 1620.13 370.455C1624.17 369.216 1627.75 367.411 1630.88 365.041C1634 362.617 1636.59 359.681 1638.63 356.233C1640.73 352.785 1642.19 348.853 1643 344.435L1678.39 344.597C1677.47 352.193 1675.19 359.519 1671.52 366.576C1667.91 373.58 1663.04 379.856 1656.9 385.404C1650.81 390.899 1643.54 395.263 1635.08 398.495C1626.67 401.673 1617.17 403.263 1606.55 403.263C1591.79 403.263 1578.59 399.923 1566.96 393.243C1555.38 386.562 1546.22 376.893 1539.48 364.233C1532.8 351.573 1529.46 336.247 1529.46 318.254C1529.46 300.207 1532.86 284.853 1539.65 272.194C1546.43 259.534 1555.64 249.891 1567.28 243.265C1578.92 236.585 1592.01 233.245 1606.55 233.245C1616.14 233.245 1625.03 234.592 1633.22 237.285C1641.46 239.979 1648.76 243.911 1655.12 249.083C1661.48 254.201 1666.65 260.477 1670.63 267.911C1674.67 275.345 1677.26 283.857 1678.39 293.446ZM1738.23 403.343C1730.31 403.343 1723.25 401.97 1717.06 399.222C1710.86 396.421 1705.96 392.3 1702.35 386.859C1698.79 381.364 1697.02 374.522 1697.02 366.334C1697.02 359.438 1698.28 353.647 1700.81 348.96C1703.35 344.274 1706.79 340.503 1711.16 337.647C1715.52 334.792 1720.48 332.637 1726.03 331.183C1731.63 329.728 1737.5 328.705 1743.64 328.112C1750.86 327.358 1756.68 326.658 1761.1 326.011C1765.51 325.311 1768.72 324.287 1770.71 322.94C1772.71 321.594 1773.7 319.6 1773.7 316.961V316.476C1773.7 311.358 1772.09 307.399 1768.85 304.597C1765.68 301.796 1761.15 300.395 1755.28 300.395C1749.08 300.395 1744.15 301.769 1740.49 304.516C1736.83 307.21 1734.4 310.604 1733.22 314.698L1701.38 312.112C1703 304.57 1706.17 298.052 1710.92 292.557C1715.66 287.008 1721.77 282.752 1729.26 279.79C1736.8 276.773 1745.53 275.264 1755.44 275.264C1762.34 275.264 1768.93 276.072 1775.24 277.689C1781.59 279.305 1787.22 281.81 1792.13 285.204C1797.08 288.598 1800.99 292.961 1803.84 298.294C1806.7 303.574 1808.13 309.904 1808.13 317.284V401H1775.48V383.788H1774.51C1772.52 387.667 1769.85 391.088 1766.51 394.051C1763.17 396.96 1759.16 399.249 1754.47 400.919C1749.78 402.535 1744.37 403.343 1738.23 403.343ZM1748.09 379.586C1753.15 379.586 1757.62 378.59 1761.5 376.596C1765.38 374.549 1768.42 371.802 1770.63 368.354C1772.84 364.906 1773.94 361.001 1773.94 356.637V343.465C1772.87 344.166 1771.39 344.812 1769.5 345.405C1767.67 345.944 1765.59 346.455 1763.28 346.94C1760.96 347.371 1758.65 347.775 1756.33 348.152C1754.01 348.475 1751.91 348.772 1750.03 349.041C1745.99 349.634 1742.46 350.576 1739.44 351.869C1736.42 353.162 1734.08 354.913 1732.41 357.122C1730.74 359.277 1729.91 361.97 1729.91 365.203C1729.91 369.889 1731.6 373.472 1735 375.95C1738.44 378.374 1742.81 379.586 1748.09 379.586ZM1834.83 401V276.88H1868.21V298.537H1869.5C1871.76 290.833 1875.56 285.015 1880.89 281.082C1886.23 277.096 1892.37 275.103 1899.32 275.103C1901.04 275.103 1902.9 275.21 1904.89 275.426C1906.89 275.641 1908.64 275.938 1910.15 276.315V306.86C1908.53 306.375 1906.29 305.944 1903.44 305.567C1900.58 305.19 1897.97 305.001 1895.6 305.001C1890.54 305.001 1886.01 306.106 1882.02 308.314C1878.09 310.469 1874.97 313.486 1872.65 317.365C1870.39 321.244 1869.26 325.715 1869.26 330.779V401H1834.83ZM1978.73 403.424C1965.96 403.424 1954.97 400.838 1945.76 395.667C1936.6 390.441 1929.55 383.061 1924.59 373.526C1919.63 363.937 1917.16 352.597 1917.16 339.506C1917.16 326.738 1919.63 315.533 1924.59 305.89C1929.55 296.247 1936.52 288.732 1945.52 283.345C1954.57 277.958 1965.18 275.264 1977.36 275.264C1985.54 275.264 1993.17 276.584 2000.22 279.224C2007.34 281.81 2013.53 285.715 2018.81 290.941C2024.14 296.166 2028.29 302.739 2031.25 310.658C2034.22 318.523 2035.7 327.735 2035.7 338.294V347.748H1930.89V326.415H2003.3C2003.3 321.459 2002.22 317.068 2000.06 313.244C1997.91 309.419 1994.92 306.429 1991.09 304.274C1987.32 302.065 1982.93 300.961 1977.92 300.961C1972.7 300.961 1968.06 302.173 1964.02 304.597C1960.04 306.968 1956.91 310.173 1954.65 314.213C1952.39 318.2 1951.23 322.644 1951.17 327.546V347.829C1951.17 353.97 1952.31 359.277 1954.57 363.748C1956.89 368.219 1960.14 371.667 1964.35 374.091C1968.55 376.515 1973.53 377.728 1979.3 377.728C1983.12 377.728 1986.62 377.189 1989.8 376.111C1992.98 375.034 1995.7 373.418 1997.96 371.263C2000.22 369.108 2001.95 366.468 2003.13 363.344L2034.97 365.445C2033.36 373.095 2030.04 379.775 2025.03 385.485C2020.08 391.142 2013.67 395.559 2005.8 398.737C1997.99 401.862 1988.97 403.424 1978.73 403.424Z" fill="#14684E"/>
<path d="M1148.51 565H1135.3L1159.35 496.697H1174.62L1198.7 565H1185.49L1167.25 510.705H1166.72L1148.51 565ZM1148.94 538.219H1184.96V548.158H1148.94V538.219ZM1271.15 566.001C1266.04 566.001 1261.65 564.878 1257.98 562.632C1254.33 560.386 1251.52 557.285 1249.54 553.327C1247.58 549.347 1246.6 544.767 1246.6 539.587C1246.6 534.384 1247.61 529.793 1249.61 525.813C1251.61 521.811 1254.43 518.698 1258.08 516.475C1261.75 514.229 1266.08 513.106 1271.08 513.106C1275.24 513.106 1278.92 513.873 1282.12 515.407C1285.35 516.919 1287.92 519.065 1289.83 521.844C1291.74 524.601 1292.83 527.825 1293.1 531.516H1281.56C1281.09 529.048 1279.98 526.991 1278.22 525.346C1276.49 523.678 1274.16 522.845 1271.25 522.845C1268.78 522.845 1266.62 523.512 1264.75 524.846C1262.88 526.157 1261.42 528.047 1260.38 530.515C1259.36 532.983 1258.84 535.94 1258.84 539.387C1258.84 542.877 1259.36 545.879 1260.38 548.391C1261.4 550.881 1262.84 552.805 1264.68 554.161C1266.55 555.495 1268.74 556.162 1271.25 556.162C1273.03 556.162 1274.62 555.829 1276.02 555.162C1277.44 554.472 1278.63 553.483 1279.59 552.193C1280.54 550.904 1281.2 549.336 1281.56 547.491H1293.1C1292.81 551.115 1291.74 554.328 1289.89 557.129C1288.05 559.908 1285.54 562.087 1282.36 563.666C1279.18 565.222 1275.44 566.001 1271.15 566.001ZM1368.56 566.001C1363.44 566.001 1359.05 564.878 1355.38 562.632C1351.74 560.386 1348.92 557.285 1346.94 553.327C1344.99 549.347 1344.01 544.767 1344.01 539.587C1344.01 534.384 1345.01 529.793 1347.01 525.813C1349.01 521.811 1351.84 518.698 1355.48 516.475C1359.15 514.229 1363.49 513.106 1368.49 513.106C1372.65 513.106 1376.33 513.873 1379.53 515.407C1382.75 516.919 1385.32 519.065 1387.23 521.844C1389.14 524.601 1390.23 527.825 1390.5 531.516H1378.96C1378.49 529.048 1377.38 526.991 1375.63 525.346C1373.89 523.678 1371.57 522.845 1368.66 522.845C1366.19 522.845 1364.02 523.512 1362.15 524.846C1360.28 526.157 1358.83 528.047 1357.78 530.515C1356.76 532.983 1356.25 535.94 1356.25 539.387C1356.25 542.877 1356.76 545.879 1357.78 548.391C1358.81 550.881 1360.24 552.805 1362.09 554.161C1363.95 555.495 1366.14 556.162 1368.66 556.162C1370.43 556.162 1372.02 555.829 1373.43 555.162C1374.85 554.472 1376.04 553.483 1376.99 552.193C1377.95 550.904 1378.61 549.336 1378.96 547.491H1390.5C1390.21 551.115 1389.14 554.328 1387.3 557.129C1385.45 559.908 1382.94 562.087 1379.76 563.666C1376.58 565.222 1372.85 566.001 1368.56 566.001ZM1465.96 566.001C1460.96 566.001 1456.62 564.9 1452.95 562.699C1449.29 560.498 1446.44 557.418 1444.42 553.461C1442.42 549.503 1441.41 544.878 1441.41 539.587C1441.41 534.295 1442.42 529.659 1444.42 525.679C1446.44 521.7 1449.29 518.609 1452.95 516.408C1456.62 514.207 1460.96 513.106 1465.96 513.106C1470.96 513.106 1475.3 514.207 1478.97 516.408C1482.64 518.609 1485.47 521.7 1487.47 525.679C1489.5 529.659 1490.51 534.295 1490.51 539.587C1490.51 544.878 1489.5 549.503 1487.47 553.461C1485.47 557.418 1482.64 560.498 1478.97 562.699C1475.3 564.9 1470.96 566.001 1465.96 566.001ZM1466.03 556.329C1468.74 556.329 1471.01 555.584 1472.83 554.094C1474.65 552.582 1476.01 550.559 1476.9 548.024C1477.81 545.49 1478.27 542.666 1478.27 539.553C1478.27 536.418 1477.81 533.584 1476.9 531.049C1476.01 528.492 1474.65 526.458 1472.83 524.946C1471.01 523.434 1468.74 522.678 1466.03 522.678C1463.25 522.678 1460.94 523.434 1459.09 524.946C1457.27 526.458 1455.9 528.492 1454.99 531.049C1454.1 533.584 1453.65 536.418 1453.65 539.553C1453.65 542.666 1454.1 545.49 1454.99 548.024C1455.9 550.559 1457.27 552.582 1459.09 554.094C1460.94 555.584 1463.25 556.329 1466.03 556.329ZM1576.61 543.455V513.773H1588.68V565H1576.97V555.895H1576.44C1575.28 558.763 1573.38 561.109 1570.74 562.932C1568.11 564.755 1564.88 565.667 1561.03 565.667C1557.67 565.667 1554.71 564.922 1552.13 563.433C1549.57 561.921 1547.57 559.731 1546.12 556.862C1544.68 553.972 1543.96 550.481 1543.96 546.39V513.773H1556.03V544.523C1556.03 547.769 1556.92 550.348 1558.7 552.26C1560.48 554.172 1562.81 555.128 1565.7 555.128C1567.48 555.128 1569.2 554.695 1570.87 553.827C1572.54 552.96 1573.9 551.671 1574.97 549.959C1576.06 548.225 1576.61 546.057 1576.61 543.455ZM1656.37 534.984V565H1644.29V513.773H1655.83V522.478H1656.43C1657.61 519.61 1659.49 517.331 1662.07 515.641C1664.67 513.951 1667.89 513.106 1671.71 513.106C1675.24 513.106 1678.32 513.862 1680.95 515.374C1683.59 516.886 1685.64 519.076 1687.08 521.944C1688.55 524.812 1689.27 528.292 1689.25 532.383V565H1677.18V534.251C1677.18 530.827 1676.29 528.147 1674.51 526.213C1672.75 524.279 1670.32 523.311 1667.21 523.311C1665.09 523.311 1663.22 523.778 1661.57 524.712C1659.95 525.624 1658.67 526.947 1657.74 528.681C1656.82 530.415 1656.37 532.516 1656.37 534.984ZM1770.31 513.773V523.111H1740.86V513.773H1770.31ZM1748.13 501.5H1760.2V549.592C1760.2 551.215 1760.45 552.46 1760.93 553.327C1761.45 554.172 1762.11 554.75 1762.94 555.061C1763.76 555.373 1764.67 555.528 1765.67 555.528C1766.43 555.528 1767.12 555.473 1767.74 555.362C1768.38 555.25 1768.87 555.15 1769.21 555.061L1771.24 564.5C1770.6 564.722 1769.67 564.967 1768.47 565.233C1767.29 565.5 1765.85 565.656 1764.14 565.7C1761.11 565.789 1758.39 565.334 1755.97 564.333C1753.54 563.31 1751.62 561.732 1750.2 559.597C1748.8 557.463 1748.11 554.795 1748.13 551.593V501.5ZM1823.6 565V513.773H1835.68V565H1823.6ZM1829.67 506.503C1827.76 506.503 1826.12 505.869 1824.74 504.602C1823.36 503.312 1822.67 501.767 1822.67 499.966C1822.67 498.143 1823.36 496.597 1824.74 495.33C1826.12 494.041 1827.76 493.396 1829.67 493.396C1831.61 493.396 1833.25 494.041 1834.61 495.33C1835.99 496.597 1836.68 498.143 1836.68 499.966C1836.68 501.767 1835.99 503.312 1834.61 504.602C1833.25 505.869 1831.61 506.503 1829.67 506.503ZM1903.37 534.984V565H1891.29V513.773H1902.83V522.478H1903.43C1904.61 519.61 1906.49 517.331 1909.07 515.641C1911.67 513.951 1914.88 513.106 1918.71 513.106C1922.24 513.106 1925.32 513.862 1927.95 515.374C1930.59 516.886 1932.64 519.076 1934.08 521.944C1935.55 524.812 1936.27 528.292 1936.25 532.383V565H1924.18V534.251C1924.18 530.827 1923.29 528.147 1921.51 526.213C1919.75 524.279 1917.32 523.311 1914.21 523.311C1912.09 523.311 1910.21 523.778 1908.57 524.712C1906.95 525.624 1905.67 526.947 1904.73 528.681C1903.82 530.415 1903.37 532.516 1903.37 534.984ZM2014 585.277C2009.67 585.277 2005.94 584.688 2002.83 583.51C1999.72 582.354 1997.22 580.797 1995.33 578.841C1993.44 576.884 1992.13 574.716 1991.39 572.337L2002.26 569.702C2002.75 570.703 2003.46 571.692 2004.4 572.671C2005.33 573.671 2006.59 574.494 2008.17 575.139C2009.77 575.806 2011.78 576.139 2014.2 576.139C2017.63 576.139 2020.46 575.305 2022.71 573.638C2024.95 571.993 2026.08 569.28 2026.08 565.5V555.795H2025.48C2024.85 557.04 2023.94 558.319 2022.74 559.631C2021.56 560.942 2020 562.043 2018.04 562.932C2016.1 563.822 2013.67 564.266 2010.74 564.266C2006.8 564.266 2003.23 563.344 2000.03 561.498C1996.85 559.631 1994.32 556.851 1992.43 553.16C1990.56 549.447 1989.62 544.801 1989.62 539.22C1989.62 533.595 1990.56 528.848 1992.43 524.979C1994.32 521.088 1996.86 518.142 2000.06 516.141C2003.26 514.118 2006.83 513.106 2010.77 513.106C2013.77 513.106 2016.24 513.617 2018.17 514.64C2020.13 515.641 2021.69 516.853 2022.84 518.275C2024 519.676 2024.88 520.999 2025.48 522.244H2026.14V513.773H2038.05V565.834C2038.05 570.214 2037 573.838 2034.91 576.706C2032.82 579.574 2029.97 581.72 2026.34 583.143C2022.72 584.566 2018.61 585.277 2014 585.277ZM2014.1 554.795C2016.66 554.795 2018.84 554.172 2020.64 552.927C2022.44 551.682 2023.81 549.892 2024.74 547.558C2025.68 545.223 2026.14 542.421 2026.14 539.153C2026.14 535.929 2025.68 533.105 2024.74 530.682C2023.83 528.258 2022.47 526.38 2020.67 525.046C2018.89 523.689 2016.7 523.011 2014.1 523.011C2011.41 523.011 2009.17 523.712 2007.37 525.112C2005.57 526.513 2004.21 528.436 2003.3 530.882C2002.39 533.306 2001.93 536.063 2001.93 539.153C2001.93 542.288 2002.39 545.034 2003.3 547.391C2004.23 549.725 2005.6 551.548 2007.4 552.86C2009.22 554.15 2011.46 554.795 2014.1 554.795Z" fill="#14684E" fill-opacity="0.88"/>
</svg>
